<svg xmlns="http://www.w3.org/2000/svg" xmlns:xlink="http://www.w3.org/1999/xlink" width="500" zoomAndPan="magnify" viewBox="0 0 375 374.999991" height="500" preserveAspectRatio="xMidYMid meet" version="1.0"><defs><clipPath id="id1"><path d="M 161 5.625 L 297 5.625 L 297 52 L 161 52 Z M 161 5.625 " clip-rule="nonzero"/></clipPath></defs><rect x="-37.5" width="450" fill="#ffffff" y="-37.499999" height="449.999989" fill-opacity="1"/><rect x="-37.5" width="450" fill="#000000" y="-37.499999" height="449.999989" fill-opacity="1"/><rect x="-37.5" width="450" fill="#ffffff" y="-37.499999" height="449.999989" fill-opacity="1"/><rect x="-37.5" width="450" fill="#000000" y="-37.499999" height="449.999989" fill-opacity="1"/><path fill="#ffd700" d="M 292.945312 137.339844 C 258.082031 138.121094 206.316406 161.054688 206.316406 161.054688 L 259.851562 133.1875 C 259.851562 133.1875 215.109375 137.382812 194.179688 136.347656 C 200.730469 135.328125 217.609375 132.714844 224.898438 131.203125 C 229.347656 130.28125 233.945312 129.324219 238.644531 128.429688 C 271.550781 122.175781 317.429688 122.550781 337.652344 135.574219 C 339.066406 136.488281 340.398438 137.851562 341.640625 139.488281 C 328.144531 138.851562 316.652344 136.808594 292.945312 137.339844 " fill-opacity="1" fill-rule="nonzero"/><path fill="#ffd700" d="M 344.472656 95 C 332.421875 80.535156 318.960938 73.628906 315.679688 72.082031 C 315.925781 69.742188 316.101562 67.378906 316.363281 65.316406 C 316.417969 64.824219 316.511719 64.269531 316.605469 63.722656 C 316.652344 63.367188 316.691406 63.414062 316.714844 63.300781 C 316.753906 63.222656 316.796875 63.167969 316.847656 63.101562 C 317.054688 62.859375 317.59375 62.511719 318.355469 62.316406 C 319.867188 61.894531 321.707031 61.863281 323.34375 61.910156 C 323.597656 61.921875 323.84375 61.9375 324.089844 61.949219 C 335.257812 66.761719 344.839844 74.601562 353.4375 84.996094 C 372.726562 108.328125 374.558594 141.308594 363.960938 161.011719 C 366.628906 129.511719 355.320312 108.019531 344.472656 95 " fill-opacity="1" fill-rule="nonzero"/><path fill="#ffd700" d="M 298.832031 86.777344 C 303.515625 84.632812 304.734375 81.605469 304.457031 76.4375 C 303.085938 81.730469 294.988281 86.28125 289.992188 86.609375 C 293.519531 87.828125 294.949219 88.550781 298.832031 86.777344 Z M 303.085938 117.925781 C 282.082031 115.949219 260.488281 117.09375 239.769531 121.035156 C 235.019531 121.9375 230.398438 122.898438 225.929688 123.824219 C 220.457031 124.960938 200.238281 129.570312 195.21875 130.464844 C 206.710938 124.566406 225.804688 115.554688 245.375 110.464844 C 256.917969 107.464844 281.535156 102.0625 281.535156 102.0625 C 283.722656 97.972656 278.265625 87.410156 277.726562 76.207031 C 277.171875 64.675781 281.503906 52.554688 281.503906 52.554688 C 281.503906 52.554688 297.660156 52.855469 315.503906 58.710938 C 315.355469 58.792969 315.207031 58.882812 315.054688 58.984375 C 314.433594 59.414062 313.789062 59.964844 313.300781 60.75 C 313.0625 61.128906 312.855469 61.566406 312.730469 62 C 312.609375 62.410156 312.511719 62.988281 312.511719 63.179688 C 312.460938 63.722656 312.40625 64.273438 312.382812 64.894531 C 312.265625 67.285156 312.277344 69.53125 312.207031 71.867188 C 312.140625 74.1875 312.03125 76.523438 311.722656 78.808594 C 311.410156 81.09375 310.925781 83.339844 310.105469 85.382812 C 309.28125 87.445312 308.109375 89.207031 306.480469 90.570312 C 305.632812 91.296875 304.796875 92.011719 303.980469 92.710938 C 303.175781 93.449219 302.386719 94.171875 301.625 94.875 C 300.898438 95.613281 300.183594 96.328125 299.5 97.019531 C 298.835938 97.738281 298.234375 98.464844 297.632812 99.136719 C 296.503906 100.550781 295.503906 101.875 294.746094 103.132812 C 294.347656 103.746094 293.980469 104.324219 293.703125 104.894531 C 293.40625 105.453125 293.136719 105.96875 292.890625 106.429688 C 292.429688 107.367188 292.132812 108.140625 291.902344 108.648438 C 291.679688 109.160156 291.5625 109.433594 291.5625 109.433594 C 291.5625 109.433594 291.699219 109.171875 291.960938 108.675781 C 292.230469 108.183594 292.585938 107.445312 293.113281 106.550781 C 293.386719 106.109375 293.695312 105.621094 294.03125 105.09375 C 294.347656 104.554688 294.753906 104.011719 295.195312 103.4375 C 296.027344 102.261719 297.109375 101.039062 298.316406 99.75 C 298.949219 99.132812 299.59375 98.476562 300.292969 97.824219 C 301.015625 97.203125 301.757812 96.558594 302.523438 95.890625 C 303.320312 95.265625 304.136719 94.625 304.96875 93.96875 C 305.839844 93.332031 306.726562 92.683594 307.632812 92.027344 C 308.0625 91.703125 308.554688 91.265625 309.019531 90.878906 C 309.269531 90.6875 309.472656 90.457031 309.671875 90.222656 L 310.28125 89.519531 C 310.722656 89.066406 311.003906 88.511719 311.363281 88.003906 C 311.734375 87.488281 311.984375 86.925781 312.273438 86.367188 C 313.378906 84.128906 314.089844 81.71875 314.605469 79.308594 C 314.808594 78.371094 314.96875 77.425781 315.113281 76.484375 C 319.519531 78.75 331.121094 85.457031 341.375 97.824219 C 355.210938 114.507812 361.457031 134.605469 360.039062 157.738281 C 358.539062 151.875 355.984375 146.058594 352.546875 140.871094 C 347.355469 133.035156 340.152344 126.621094 331.558594 123.59375 C 322.425781 120.371094 312.699219 118.828125 303.085938 117.925781 " fill-opacity="1" fill-rule="nonzero"/><path fill="#ffd700" d="M 241.476562 218.867188 C 241.480469 218.859375 241.480469 218.851562 241.480469 218.84375 C 241.480469 218.851562 241.480469 218.851562 241.480469 218.859375 C 241.484375 219.019531 241.480469 219.023438 241.476562 218.867188 " fill-opacity="1" fill-rule="nonzero"/><path fill="#ffd700" d="M 207.527344 178.40625 C 220.785156 180.011719 232.699219 159.109375 241.921875 152.925781 C 253.695312 145.03125 263.515625 144.117188 280.476562 140.433594 C 289.246094 138.53125 303.148438 139.746094 303.148438 139.746094 C 299.609375 154.957031 285.46875 166.628906 272.0625 172.054688 C 280.429688 167.804688 288.234375 154.617188 288.019531 145.074219 C 284.171875 159.457031 270.460938 166.503906 260.09375 175.328125 C 248.214844 185.433594 243.515625 204.0625 241.480469 218.84375 C 239.421875 197.753906 244.082031 176.246094 257.214844 159.265625 C 242.363281 173.167969 229.203125 181.027344 207.527344 178.40625 " fill-opacity="1" fill-rule="nonzero"/><path fill="#ffd700" d="M 198.625 89.484375 C 202.933594 89.484375 206.425781 85.984375 206.425781 81.675781 C 206.425781 77.363281 202.933594 73.863281 198.625 73.863281 C 194.320312 73.863281 190.824219 77.363281 190.824219 81.675781 C 190.824219 85.984375 194.320312 89.484375 198.625 89.484375 Z M 205.28125 101.464844 C 195.511719 105.855469 181.953125 101.265625 176.765625 95.078125 C 171.582031 88.890625 158.417969 82.703125 158.417969 82.703125 C 170.980469 82.902344 183.542969 62.941406 201.09375 64.535156 C 218.644531 66.132812 223.230469 85.496094 223.230469 85.496094 C 223.230469 85.496094 220.171875 79.726562 213.929688 75.054688 C 214.777344 77.28125 215.230469 79.621094 215.230469 81.675781 C 215.230469 91.359375 207.386719 99.210938 197.710938 99.210938 C 188.03125 99.210938 180.1875 91.359375 180.1875 81.675781 C 180.1875 80.769531 180.25 79.710938 180.398438 78.632812 C 176.789062 81.449219 174.371094 83.824219 174.371094 83.824219 C 179.757812 100.117188 205.28125 101.464844 205.28125 101.464844 " fill-opacity="1" fill-rule="nonzero"/><path fill="#ffd700" d="M 264.621094 180.121094 C 296.78125 227.195312 324.449219 272.640625 337.265625 328.09375 C 333.539062 311.964844 310.925781 295.152344 300.355469 282.164062 C 279.125 256.085938 263.773438 213.636719 264.621094 180.121094 " fill-opacity="1" fill-rule="nonzero"/><path fill="#ffd700" d="M 248.925781 273.351562 C 244.539062 249.304688 239.070312 218.742188 251.628906 196.046875 L 255.96875 188.234375 C 272.84375 239.773438 284.375 309.253906 249.417969 355.316406 C 261.335938 333.988281 253.066406 296.042969 248.925781 273.351562 " fill-opacity="1" fill-rule="nonzero"/><path fill="#ffd700" d="M 309.195312 301.503906 C 298.714844 295.238281 289.714844 295.65625 282.265625 283.992188 C 275.4375 273.289062 276.015625 259.984375 275.925781 247.707031 C 275.925781 247.46875 275.925781 247.230469 275.925781 246.988281 C 275.925781 264.921875 294.324219 292.617188 309.195312 301.503906 " fill-opacity="1" fill-rule="nonzero"/><path fill="#ffd700" d="M 243.007812 174.890625 C 226.976562 194.980469 235.117188 220.550781 239.140625 243.402344 C 243.082031 265.796875 243.308594 283.4375 235.910156 305.03125 C 237.917969 299.171875 227.832031 279.3125 226.121094 272.902344 C 222.910156 260.863281 220.175781 248.578125 219.425781 236.105469 C 217.9375 211.242188 224.953125 191.980469 243.007812 174.890625 " fill-opacity="1" fill-rule="nonzero"/><path fill="#ffd700" d="M 241.195312 305.332031 C 245.082031 300.484375 249.703125 289.492188 247.375 283.09375 C 253.773438 300.671875 249.75 320.902344 239.214844 335.914062 C 229.582031 349.640625 216.746094 357.027344 214.925781 375.402344 C 211.621094 360.414062 213.285156 336.015625 223.148438 322.960938 C 228.304688 316.136719 235.914062 311.929688 241.195312 305.332031 " fill-opacity="1" fill-rule="nonzero"/><path fill="#ffd700" d="M 188.878906 199.78125 C 196.398438 195.558594 203.976562 192.160156 212.113281 189.371094 C 218.496094 187.179688 224.625 185.03125 231.125 183.296875 C 224.957031 186.363281 218.679688 193.925781 213.660156 198.863281 C 189.199219 222.925781 156.402344 259.476562 158.390625 296.628906 C 153.792969 276.757812 148.761719 253.714844 158.273438 231.332031 C 164.246094 217.28125 175.800781 207.125 188.878906 199.78125 " fill-opacity="1" fill-rule="nonzero"/><path fill="#ffd700" d="M 187.335938 249.484375 C 190.289062 240.011719 194.886719 231.484375 199.980469 223.039062 C 205.511719 213.875 213.738281 204.296875 221.382812 196.792969 C 214.324219 208.765625 216.105469 223.375 212.6875 236.535156 C 209.808594 247.617188 203.398438 257.152344 196.75 266.300781 C 189.695312 276.003906 186.613281 286.007812 187.964844 297.820312 C 183.984375 281.492188 182.207031 265.941406 187.335938 249.484375 " fill-opacity="1" fill-rule="nonzero"/><path fill="#ffd700" d="M 183.851562 325.414062 C 184.726562 324.578125 185.601562 323.757812 186.476562 322.941406 C 185.679688 323.859375 184.8125 324.691406 183.851562 325.414062 " fill-opacity="1" fill-rule="nonzero"/><path fill="#ffd700" d="M 206.070312 260.046875 C 211.324219 252.964844 217.71875 245.449219 215.839844 235.777344 C 219.1875 253 218.332031 271.6875 212.878906 288.824219 C 208.078125 303.902344 197.328125 312.816406 186.476562 322.941406 C 193.773438 314.515625 194.558594 298.679688 196.128906 288.617188 C 197.660156 278.761719 200.1875 267.972656 206.070312 260.046875 " fill-opacity="1" fill-rule="nonzero"/><path fill="#ffd700" d="M 223.957031 275.699219 C 224.8125 285.503906 226.917969 293.738281 224.523438 303.792969 C 221.949219 314.582031 218.261719 319.683594 211.015625 327.960938 C 215.5 322.476562 213.941406 311.121094 215.207031 304.050781 C 217.050781 293.753906 220.8125 285.394531 223.957031 275.699219 " fill-opacity="1" fill-rule="nonzero"/><path fill="#ffd700" d="M 140.472656 204.859375 C 158.417969 179.171875 184.175781 174.890625 219.234375 161.054688 C 189.992188 185.867188 154.023438 205.382812 146.53125 247.070312 C 141.84375 273.167969 154.039062 317.863281 126.488281 335.402344 C 124.777344 336.492188 123.519531 338.085938 121.929688 339.316406 C 130.960938 326.128906 125.707031 301.601562 122.847656 287.683594 C 116.539062 256.96875 122.511719 230.5625 140.472656 204.859375 " fill-opacity="1" fill-rule="nonzero"/><path fill="#ffd700" d="M 242.136719 140.96875 C 224.304688 140.964844 201.730469 161.78125 184.617188 166.449219 C 162.558594 172.464844 141.378906 171.371094 119.597656 165.5625 C 137.351562 170.296875 164.234375 154.527344 180.324219 148.609375 C 201.445312 140.84375 219.675781 139.199219 242.136719 140.96875 " fill-opacity="1" fill-rule="nonzero"/><path fill="#ffd700" d="M 96.988281 216.488281 C 108.347656 201.234375 130.671875 183.296875 156.65625 177.003906 C 136.023438 187.308594 131.207031 208.015625 119.601562 226.144531 C 106.566406 246.5 90.609375 263.117188 65.832031 265.136719 C 82.644531 256.089844 85.941406 231.316406 96.988281 216.488281 " fill-opacity="1" fill-rule="nonzero"/><path fill="#ffd700" d="M 118.167969 245.496094 C 109.757812 249.421875 106.703125 269.738281 104.304688 277.417969 C 100.050781 291.050781 96.335938 304.996094 88.566406 317.160156 C 78.363281 333.128906 65.734375 343.957031 68.113281 364.566406 C 59.222656 322.09375 76.429688 264.984375 118.167969 245.496094 " fill-opacity="1" fill-rule="nonzero"/><path fill="#ffd700" d="M 78.628906 228.832031 C 65.914062 248.226562 45.996094 263.480469 22.386719 261.265625 C 37.722656 262.707031 59.804688 218.21875 67.164062 208.125 C 81.292969 188.757812 105.101562 169.097656 130.636719 178.128906 C 110.035156 178.984375 88.5625 213.679688 78.628906 228.832031 " fill-opacity="1" fill-rule="nonzero"/><path fill="#ffd700" d="M 46.316406 187.539062 C 59.167969 159.464844 76.523438 159.601562 103.792969 165.085938 C 57.433594 171.992188 61.121094 231.40625 21.382812 245.90625 C 35.300781 240.828125 40.804688 199.574219 46.316406 187.539062 " fill-opacity="1" fill-rule="nonzero"/><path fill="#ffd700" d="M 179.828125 135.246094 C 156.984375 156.84375 129.363281 152.632812 98.902344 153.15625 C 76.246094 153.546875 45.898438 160.421875 34.121094 183.246094 C 41.21875 154.597656 62.800781 140.964844 90.625 136.945312 C 117.550781 133.054688 155.242188 151.167969 179.828125 135.246094 " fill-opacity="1" fill-rule="nonzero"/><g clip-path="url(#id1)"><path fill="#ffd700" d="M 229.65625 28.917969 C 205.402344 26.828125 178.992188 25.609375 161.933594 5.660156 C 166.058594 8.414062 171.347656 10.714844 176.316406 11.652344 C 198.152344 15.761719 220.421875 10.859375 242.324219 15.453125 C 242.949219 15.582031 243.574219 15.722656 244.195312 15.867188 C 265.289062 20.832031 284.585938 33.675781 296.902344 51.636719 C 284.046875 32.890625 250.015625 30.675781 229.65625 28.917969 " fill-opacity="1" fill-rule="nonzero"/></g><path fill="#ffd700" d="M 261.6875 50.878906 C 242.816406 41.027344 221.65625 40.28125 203.527344 28.644531 C 217.140625 37.382812 237.324219 34.246094 252.785156 35.613281 C 259.566406 36.210938 268.1875 36.933594 273.46875 41.800781 C 280.59375 48.367188 276.855469 57.519531 274.96875 65.542969 C 273.890625 58.164062 267.941406 54.140625 261.6875 50.878906 " fill-opacity="1" fill-rule="nonzero"/><path fill="#ffd700" d="M 284.324219 43.847656 C 286.316406 45.382812 291.675781 51.933594 294.117188 51.613281 C 290.050781 52.148438 284.511719 50.386719 281.265625 47.933594 C 280.113281 47.066406 279.25 46.03125 278.46875 44.949219 C 276.734375 42.5625 275.398438 39.949219 272.238281 38.449219 C 276.890625 39.085938 280.644531 41.007812 284.324219 43.847656 " fill-opacity="1" fill-rule="nonzero"/><path fill="#ffd700" d="M 148.996094 66.066406 C 160.183594 68.183594 171.6875 52.875 182.640625 50.34375 C 203.40625 45.535156 222.320312 54.171875 226.277344 75.835938 C 223.011719 60.792969 197.945312 57.53125 186.367188 61.652344 C 175.628906 65.476562 163.21875 73.601562 151.476562 67.203125 C 150.6875 66.773438 149.773438 66.457031 148.996094 66.066406 " fill-opacity="1" fill-rule="nonzero"/><path fill="#ffd700" d="M 187.523438 32.617188 C 197.414062 40.046875 209.59375 39.242188 221.371094 41.175781 C 232.910156 43.070312 245.355469 46.425781 254.90625 53.457031 C 266.578125 62.050781 266.339844 73.933594 261.699219 86.964844 C 257.96875 54.539062 204.175781 55.445312 187.523438 32.617188 " fill-opacity="1" fill-rule="nonzero"/><path fill="#ffd700" d="M 186.882812 121.003906 C 175.226562 121.929688 161.769531 113.980469 152.355469 107.738281 C 141.378906 100.457031 132.570312 85.585938 118.40625 84.730469 C 131.574219 80.597656 144.953125 83.121094 156.539062 90.574219 C 165.398438 96.273438 174.421875 103.65625 184.742188 107.273438 C 194.265625 110.613281 211.050781 111.019531 217.664062 101.613281 C 211 111.691406 199.121094 120.03125 186.882812 121.003906 " fill-opacity="1" fill-rule="nonzero"/><path fill="#ffd700" d="M 124.953125 119.128906 C 119.828125 111.34375 110.375 96.785156 99.800781 96.78125 C 107.222656 96.78125 114.433594 95.738281 121.777344 97.691406 C 135.785156 101.414062 144.839844 113.917969 157.773438 119.570312 C 169.261719 124.59375 186.269531 128.582031 198.1875 122.96875 C 186.75 128.355469 168.296875 133.269531 154.863281 133.03125 C 142.019531 132.800781 131.933594 129.730469 124.953125 119.128906 " fill-opacity="1" fill-rule="nonzero"/><path fill="#ffd700" d="M 161.453125 22.589844 C 173.246094 24.691406 182.308594 33.238281 188.828125 42.847656 C 163.664062 33.027344 146.175781 59.457031 123.464844 61.722656 C 108.960938 63.171875 79.597656 58.105469 77.546875 39.925781 C 95.484375 45.902344 108.34375 39.824219 125.34375 32.507812 C 128.328125 31.21875 131.394531 29.75 134.535156 28.328125 C 143.09375 24.449219 152.1875 20.9375 161.453125 22.589844 " fill-opacity="1" fill-rule="nonzero"/><path fill="#ffd700" d="M 143.890625 58.347656 C 141.375 63.945312 137.285156 70.15625 132.34375 74 C 119.230469 84.199219 95.488281 81.648438 79.839844 83.449219 C 60.476562 85.675781 31.25 96.15625 27.734375 119.304688 C 27.734375 99.210938 39.347656 81.761719 54.796875 71.257812 C 83.070312 52.03125 118.269531 81.554688 143.890625 58.347656 " fill-opacity="1" fill-rule="nonzero"/><path fill="#ffd700" d="M 18.277344 157.574219 C 18.285156 157.570312 18.292969 157.566406 18.300781 157.566406 C 18.296875 157.570312 18.289062 157.574219 18.285156 157.578125 C 18.023438 157.617188 18.019531 157.613281 18.277344 157.574219 " fill-opacity="1" fill-rule="nonzero"/><path fill="#ffd700" d="M 45.761719 109.929688 C 60.894531 93.847656 84.828125 86.292969 106.730469 90.605469 C 87 93.328125 73.070312 105.429688 61.554688 120.90625 C 55.035156 129.667969 51.53125 141.148438 43.199219 148.242188 C 35.863281 154.488281 27.132812 155.261719 18.300781 157.566406 C 32.964844 147.917969 33.304688 128.675781 41.828125 115.066406 C 42.972656 113.238281 44.265625 111.515625 45.761719 109.929688 " fill-opacity="1" fill-rule="nonzero"/><path fill="#ffd700" d="M 87.660156 110.824219 C 104.996094 104.078125 113.816406 120.507812 124.84375 129.792969 C 98.859375 110.550781 82.5625 143.421875 58.511719 136.90625 C 69.285156 130.347656 75.921875 115.390625 87.660156 110.824219 " fill-opacity="1" fill-rule="nonzero"/><path fill="#ffd700" d="M 214.640625 109.449219 C 223.132812 108.480469 231.339844 97.203125 232.890625 89.476562 C 234.386719 82.019531 235.378906 72.304688 229.820312 66.207031 C 237.757812 70.488281 245.242188 81.835938 243.644531 91.121094 C 241.574219 103.15625 224.988281 108.269531 214.640625 109.449219 " fill-opacity="1" fill-rule="nonzero"/><path fill="#ffd700" d="M 176.28125 24.855469 C 169.328125 15.867188 154.101562 20.875 145.101562 22.109375 C 137.269531 23.183594 132.566406 22.324219 126.144531 17.914062 C 132.832031 21.984375 143.441406 15.273438 150.445312 14.261719 C 158.933594 13.035156 172.691406 15.5 176.28125 24.855469 " fill-opacity="1" fill-rule="nonzero"/><path fill="#ffd700" d="M 93.425781 62.273438 C 86.523438 59.480469 80.824219 62.230469 73.804688 62.304688 C 68.160156 62.363281 63.472656 60.738281 58.511719 58.625 C 64.375 61.121094 71.777344 58.488281 77.679688 57.578125 C 84.808594 56.480469 87.527344 58.449219 93.425781 62.273438 " fill-opacity="1" fill-rule="nonzero"/><path fill="#ffd700" d="M 35.6875 159.222656 C 28.164062 166 32.085938 178.40625 29.695312 186.972656 C 27.734375 194.003906 21.402344 193.707031 15.375 194.78125 C 32.183594 191.792969 20.765625 162.90625 35.6875 159.222656 " fill-opacity="1" fill-rule="nonzero"/><path fill="#ffd700" d="M 36.894531 184.445312 C 40.75 200.605469 31.015625 216.574219 21.734375 228.820312 C 15.738281 236.730469 11.078125 247.535156 12.914062 257.691406 C 9.152344 245.617188 8.292969 235.261719 14.894531 223.855469 C 21.753906 211.988281 37.914062 199.320312 36.894531 184.445312 " fill-opacity="1" fill-rule="nonzero"/><path fill="#ffd700" d="M 56.140625 258.3125 C 56.140625 258.371094 56.128906 258.425781 56.128906 258.480469 C 56.121094 258.429688 56.117188 258.375 56.105469 258.320312 C 56.128906 258.015625 56.140625 258.015625 56.140625 258.3125 " fill-opacity="1" fill-rule="nonzero"/><path fill="#ffd700" d="M 56.128906 258.480469 C 61.066406 286.085938 16.144531 332.105469 38.082031 356.933594 C 25.613281 342.820312 21.667969 319.132812 24.800781 301.011719 C 27.808594 283.574219 55.96875 273.492188 56.128906 258.480469 " fill-opacity="1" fill-rule="nonzero"/><path fill="#ffd700" d="M 21.335938 276.929688 C 24.066406 275.457031 35.566406 268.296875 35.34375 264.839844 C 36.039062 275.585938 28.617188 284.203125 18.367188 286.382812 C 10.496094 288.054688 5.507812 283.757812 0.371094 278.359375 C 5.921875 284.191406 15.589844 280.027344 21.335938 276.929688 " fill-opacity="1" fill-rule="nonzero"/></svg>